# xmcd
#
# Track frame offsets:
#	150
#	10742
#	26800
#	41100
#	51542
#	61675
#	73312
#	84117
#	97332
#	113937
#	129175
#	138777
#	147795
#	161947
#	172000
#	186105
#	199220
#	212925
#
# Disc length: 2983 seconds
#
# Revision: 1
# Processed by: cddbd v1.5.2PL0 Copyright (c) Steve Scherf et al.
# Submitted via: audiograbber 1.83.01
#
DISCID=0f0ba512
DTITLE=Vasrious Artists - Country Tracks  Volume 5
DYEAR=1997
DGENRE=Country
TTITLE0=Willie Nelson - Blue eyes crying in the rain
TTITLE1=Randy Newman - Just when I needed you the most
TTITLE2=Charlie Rich and Janie Frickie - On my knees
TTITLE3=Little Jimmy Dickens - May the bird of Paradise fly up your nose
TTITLE4=Patsy Cline - Three cigarettes in an Ashtray
TTITLE5=Donna Fargo - The Happiest girl in the whole USA
TTITLE6=Hank Locklin - Send me the pillow that you dream on
TTITLE7=Kenny Rogers and the First Edition - Ruby, Don't take your love to town
TTITLE8=Bobby Bare - Some days are Diamonds
TTITLE9=Don Fardon - Indian Reservation
TTITLE10=Dave Dudley - Truck Drivin' sun of a gun
TTITLE11=Roger Miller - Chug a lug
TTITLE12=Jimmy Dean - PT 109
TTITLE13=Carl Perkins - Everybody's trying to be my baby
TTITLE14=B. J. Thomas - I'm so lonesome I could cry
TTITLE15=Wanda Jackson - I fall to pieces
TTITLE16=Johnny Cash - Don't take your guns to town
TTITLE17=Gene Autrey - Red River Valley
EXTD=
EXTT0=
EXTT1=
EXTT2=
EXTT3=
EXTT4=
EXTT5=
EXTT6=
EXTT7=
EXTT8=
EXTT9=
EXTT10=
EXTT11=
EXTT12=
EXTT13=
EXTT14=
EXTT15=
EXTT16=
EXTT17=
PLAYORDER=
